<?xml version="1.0" encoding="iso-8859-1"?>
<!-- Uploaded to: SVG Repo, www.svgrepo.com, Generator: SVG Repo Mixer Tools -->
<svg height="800px" width="800px" version="1.1" id="Layer_1" xmlns="http://www.w3.org/2000/svg" xmlns:xlink="http://www.w3.org/1999/xlink" 
	 viewBox="0 0 512 512" xml:space="preserve">
<circle style="fill:#E04F5F;" cx="256" cy="256" r="256"/>
<path style="fill:#FFFFFF;" d="M337.536,373.488c-13.472,7.536-36.464,15.056-61.84,15.056c-38.864,0-74.56-15.856-96.752-45.2
	c-10.704-13.472-18.64-30.512-22.208-51.536h-25.76v-28.16h21.808c0-1.984,0-4.352,0-6.736c0-3.968,0.4-7.936,0.4-11.904h-22.208
	v-28.144h26.56c5.152-21.424,14.672-39.664,27.36-54.336c22.592-25.376,54.32-40.432,91.584-40.432
	c24.192,0,45.2,5.552,59.488,11.888l-11.104,45.2c-10.32-4.352-26.56-9.52-44-9.52c-19.04,0-36.496,6.336-48.784,21.408
	c-5.552,6.336-9.92,15.472-12.688,25.776h98.736v28.144H213.44c-0.4,3.968-0.4,8.336-0.4,12.304c0,2.368,0,3.968,0,6.336h105.072
	v28.16h-99.52c2.768,11.888,7.136,21.008,13.072,27.744c12.688,14.272,31.328,20.224,51.152,20.224c18.256,0,36.88-5.952,45.2-10.32
	L337.536,373.488z"/>
</svg>